<svg width="385" height="385" viewBox="0 0 385 385" fill="none" xmlns="http://www.w3.org/2000/svg">
<rect width="385" height="385" fill="#B59F3B"/>
<g filter="url(#filter0_d_1_5)">
<path d="M238.359 194.032L242.391 155.44H240.951L230.295 190L197.463 260.848H185.367L150.519 189.712L139.863 154.864H138.135L143.607 193.744V298H109.335V96.4H144.183L186.231 183.664L193.143 208.72H194.295L200.919 183.088L240.375 96.4H274.647V298H238.359V194.032Z" fill="white"/>
<path d="M238.359 194.032L235.375 193.72L235.359 193.876V194.032H238.359ZM242.391 155.44L245.375 155.752L245.721 152.44H242.391V155.44ZM240.951 155.44V152.44H238.737L238.084 154.556L240.951 155.44ZM230.295 190L233.017 191.261L233.102 191.078L233.162 190.884L230.295 190ZM197.463 260.848V263.848H199.379L200.185 262.109L197.463 260.848ZM185.367 260.848L182.673 262.168L183.496 263.848H185.367V260.848ZM150.519 189.712L147.65 190.589L147.72 190.817L147.825 191.032L150.519 189.712ZM139.863 154.864L142.732 153.987L142.083 151.864H139.863V154.864ZM138.135 154.864V151.864H134.683L135.164 155.282L138.135 154.864ZM143.607 193.744H146.607V193.534L146.578 193.326L143.607 193.744ZM143.607 298V301H146.607V298H143.607ZM109.335 298H106.335V301H109.335V298ZM109.335 96.4V93.4H106.335V96.4H109.335ZM144.183 96.4L146.886 95.0977L146.068 93.4H144.183V96.4ZM186.231 183.664L189.123 182.866L189.051 182.605L188.934 182.362L186.231 183.664ZM193.143 208.72L190.251 209.518L190.859 211.72H193.143V208.72ZM194.295 208.72V211.72H196.618L197.2 209.471L194.295 208.72ZM200.919 183.088L198.189 181.845L198.08 182.084L198.014 182.337L200.919 183.088ZM240.375 96.4V93.4H238.444L237.645 95.1572L240.375 96.4ZM274.647 96.4H277.647V93.4H274.647V96.4ZM274.647 298V301H277.647V298H274.647ZM238.359 298H235.359V301H238.359V298ZM241.343 194.344L245.375 155.752L239.407 155.128L235.375 193.72L241.343 194.344ZM242.391 152.44H240.951V158.44H242.391V152.44ZM238.084 154.556L227.428 189.116L233.162 190.884L243.818 156.324L238.084 154.556ZM227.573 188.739L194.741 259.587L200.185 262.109L233.017 191.261L227.573 188.739ZM197.463 257.848H185.367V263.848H197.463V257.848ZM188.061 259.528L153.213 188.392L147.825 191.032L182.673 262.168L188.061 259.528ZM153.388 188.835L142.732 153.987L136.994 155.741L147.65 190.589L153.388 188.835ZM139.863 151.864H138.135V157.864H139.863V151.864ZM135.164 155.282L140.636 194.162L146.578 193.326L141.106 154.446L135.164 155.282ZM140.607 193.744V298H146.607V193.744H140.607ZM143.607 295H109.335V301H143.607V295ZM112.335 298V96.4H106.335V298H112.335ZM109.335 99.4H144.183V93.4H109.335V99.4ZM141.48 97.7022L183.528 184.966L188.934 182.362L146.886 95.0977L141.48 97.7022ZM183.339 184.462L190.251 209.518L196.035 207.922L189.123 182.866L183.339 184.462ZM193.143 211.72H194.295V205.72H193.143V211.72ZM197.2 209.471L203.824 183.839L198.014 182.337L191.39 207.969L197.2 209.471ZM203.649 184.331L243.105 97.6428L237.645 95.1572L198.189 181.845L203.649 184.331ZM240.375 99.4H274.647V93.4H240.375V99.4ZM271.647 96.4V298H277.647V96.4H271.647ZM274.647 295H238.359V301H274.647V295ZM241.359 298V194.032H235.359V298H241.359Z" fill="#B59F3B"/>
</g>
<defs>
<filter id="filter0_d_1_5" x="105.335" y="96.4" width="173.312" height="209.6" filterUnits="userSpaceOnUse" color-interpolation-filters="sRGB">
<feFlood flood-opacity="0" result="BackgroundImageFix"/>
<feColorMatrix in="SourceAlpha" type="matrix" values="0 0 0 0 0 0 0 0 0 0 0 0 0 0 0 0 0 0 127 0" result="hardAlpha"/>
<feOffset dy="4"/>
<feGaussianBlur stdDeviation="2"/>
<feComposite in2="hardAlpha" operator="out"/>
<feColorMatrix type="matrix" values="0 0 0 0 0 0 0 0 0 0 0 0 0 0 0 0 0 0 0.25 0"/>
<feBlend mode="normal" in2="BackgroundImageFix" result="effect1_dropShadow_1_5"/>
<feBlend mode="normal" in="SourceGraphic" in2="effect1_dropShadow_1_5" result="shape"/>
</filter>
</defs>
</svg>
